<svg width="17" height="20" viewBox="0 0 17 20" fill="none" xmlns="http://www.w3.org/2000/svg">
<path d="M5.91245 1.6623C5.91245 1.19512 5.51714 0.799805 5.04995 0.799805C4.54683 0.799805 4.18745 1.19512 4.18745 1.6623V3.0998H2.74995C1.4562 3.0998 0.449951 4.14199 0.449951 5.3998V16.8998C0.449951 18.1936 1.4562 19.1998 2.74995 19.1998H14.25C15.5078 19.1998 16.55 18.1936 16.55 16.8998V5.3998C16.55 4.14199 15.5078 3.0998 14.25 3.0998H12.8125V1.6623C12.8125 1.19512 12.4171 0.799805 11.95 0.799805C11.4468 0.799805 11.0875 1.19512 11.0875 1.6623V3.0998H5.91245V1.6623ZM2.17495 7.6998H14.825V16.8998C14.825 17.2232 14.5375 17.4748 14.25 17.4748H2.74995C2.42651 17.4748 2.17495 17.2232 2.17495 16.8998V7.6998Z" fill="#273A60"/>
</svg>
