<svg width="17" height="17" viewBox="0 0 17 17" fill="none" xmlns="http://www.w3.org/2000/svg">
<path d="M7.25152 2.9752H9.72183C9.80152 2.9752 9.88121 3.02832 9.90777 3.08145L10.4125 3.8252H6.56089L7.06558 3.08145C7.11871 3.02832 7.17183 2.9752 7.25152 2.9752ZM11.9531 3.8252L10.9703 2.36426C10.7046 1.96582 10.2265 1.7002 9.72183 1.7002H7.25152C6.74683 1.7002 6.26871 1.96582 6.00308 2.36426L5.02027 3.8252H3.18746C2.81558 3.8252 2.54996 4.11738 2.54996 4.4627C2.54996 4.83457 2.81558 5.1002 3.18746 5.1002H3.47964L4.11714 13.733C4.19683 14.6361 4.91402 15.3002 5.81714 15.3002H11.1562C12.0593 15.3002 12.7765 14.6361 12.8562 13.733L13.4937 5.1002H13.8125C14.1578 5.1002 14.45 4.83457 14.45 4.4627C14.45 4.11738 14.1578 3.8252 13.8125 3.8252H11.9531ZM12.2187 5.1002L11.5812 13.6533C11.5546 13.8658 11.3687 14.0252 11.1562 14.0252H5.81714C5.60464 14.0252 5.41871 13.8658 5.39214 13.6533L4.75464 5.1002H12.2187Z" fill="#273A60"/>
</svg>
