<svg width="17" height="17" viewBox="0 0 17 17" fill="none" xmlns="http://www.w3.org/2000/svg">
<path d="M2.67529 11.2629L2.06436 13.3348L1.74561 14.477C1.66592 14.6895 1.71904 14.9285 1.90498 15.0879C2.06436 15.2738 2.30342 15.327 2.51592 15.2738L3.65811 14.9285L5.72998 14.3176C5.99561 14.2379 6.26123 14.1051 6.47373 13.9457H6.50029V13.9191C6.52686 13.8926 6.57998 13.866 6.60654 13.8395C6.63311 13.7863 6.68623 13.7598 6.71279 13.7332L14.7878 5.6582C15.3722 5.07383 15.4519 4.1707 15.0003 3.50664C14.9472 3.42695 14.8675 3.3207 14.7878 3.24102L13.7519 2.20508C13.0878 1.54102 11.9987 1.54102 11.3347 2.20508L3.25967 10.2801C3.20654 10.3332 3.12686 10.4129 3.07373 10.4926H3.04717V10.5191C2.88779 10.7316 2.75498 10.9973 2.67529 11.2629ZM11.8925 6.74727L6.95186 11.6879L5.62373 11.3691L5.30498 10.041L10.2456 5.10039L11.8925 6.74727ZM4.29561 11.2098L4.48154 12.0332C4.53467 12.2723 4.72061 12.4582 4.95967 12.5113L5.78311 12.7238L5.57061 13.016C5.51748 13.0426 5.43779 13.0691 5.35811 13.0957L4.74717 13.2816L3.28623 13.7066L3.71123 12.2457L3.89717 11.6348C3.92373 11.5551 3.95029 11.4754 3.97686 11.4223L4.29561 11.2098ZM10.0862 7.49102C10.2456 7.33164 10.2456 7.06602 10.0862 6.90664C9.92686 6.7207 9.63467 6.7207 9.47529 6.90664L6.92529 9.45664C6.76592 9.61602 6.76592 9.88164 6.92529 10.041C7.08467 10.2004 7.37686 10.2004 7.53623 10.041L10.0862 7.49102Z" fill="#273A60"/>
</svg>
