<svg width="206" height="25" viewBox="0 0 206 25" fill="none" xmlns="http://www.w3.org/2000/svg">
<g clip-path="url(#clip0_412_9114)">
<path d="M52.6525 8.2373H49.4335V15.799C49.4335 17.9362 48.5493 19.0223 46.736 19.0223C46.0316 19.0223 45.5101 18.7486 45.1444 18.3963C44.6799 17.9421 44.4581 17.1937 44.4581 16.1019V8.2373H41.26V16.3639C41.26 18.1517 41.6796 19.4299 42.5458 20.2743C43.3731 21.078 44.3831 21.4711 46.0556 21.4711C47.2245 21.4711 48.6572 20.6995 49.4754 19.6804V21.1304H52.6525V8.2373Z" fill="#273A60"/>
<path d="M96.7717 18.9232C96.7538 18.9232 96.7358 18.9232 96.7178 18.9232C95.5219 18.9057 94.4908 18.4806 94.4039 17.511C94.32 16.5414 94.8985 15.8484 96.4151 15.5922C96.8077 15.5165 97.2213 15.4786 97.617 15.4233C98.2194 15.333 98.9327 15.1729 99.5442 14.7711V16.7481C99.5442 18.3234 97.9556 18.9261 96.7687 18.9261M97.6679 7.89941C97.6679 7.89941 97.6409 7.89941 97.626 7.89941C95.7227 7.90815 92.5127 8.28376 92.141 11.7953H95.36C95.3241 10.4064 96.8677 10.3016 97.3322 10.3016C97.4131 10.3016 97.4611 10.3045 97.4611 10.3045C98.1445 10.3045 98.7709 10.5141 99.2235 10.8665C99.5052 11.0848 99.691 11.4168 99.712 11.9583C99.748 12.8348 99.3164 13.2541 96.3012 13.5365C93.9753 13.7549 91.2029 14.3663 91.2029 17.6129C91.2029 18.6495 91.5685 19.5492 92.2549 20.2189C93.0881 21.0283 94.347 21.4738 95.7946 21.4738C97.7129 21.4738 98.8219 21.008 99.8079 19.9365L99.9638 21.1332H103.051V20.6469C102.652 20.3441 102.739 19.0629 102.739 19.0629V11.7167C102.739 10.7529 102.41 9.94053 101.756 9.30577C100.842 8.41479 99.5382 7.89941 97.6619 7.89941" fill="#273A60"/>
<path d="M72.509 18.9231C71.6068 18.9231 71.0134 18.6436 70.4499 18.0933C69.6826 17.3479 69.263 16.1366 69.263 14.672C69.263 13.2074 69.7246 12.0311 70.5248 11.2508C71.1063 10.6888 71.6698 10.4005 72.509 10.4005C74.3823 10.4005 75.3714 11.5681 75.6591 13.6879C75.7011 14.0111 75.719 15.1787 75.7011 15.4C75.4913 17.6711 74.4902 18.9231 72.509 18.9231ZM72.1164 7.89647C68.2889 7.89647 66.0649 10.5228 66.0649 14.7536C66.0649 16.9111 66.7693 18.83 67.9922 20.0209C68.9783 20.9817 70.1052 21.4709 71.6368 21.4709C73.3782 21.4709 74.649 20.6964 75.6171 19.5404V24.6272L78.8392 24.6185V8.24587L75.785 8.23423V9.84732C74.9637 8.74378 73.8158 7.89355 72.1164 7.89355" fill="#273A60"/>
<path d="M39.4136 3.92773H35.9248V10.5111H28.6086V3.92773H25.1228V21.1302H28.6086V13.4811H35.9248V21.1302H39.4136V3.92773Z" fill="#273A60"/>
<path d="M59.6511 7.89355C59.6091 7.89355 59.5702 7.89355 59.5282 7.89355C57.0615 7.9285 54.1302 8.8748 54.1302 11.6526C54.1302 14.2644 55.9915 15.0593 58.2274 15.5281C58.5271 15.595 58.8328 15.6591 59.1296 15.7202C60.799 16.0609 62.0549 16.3841 62.0818 17.4585C62.1088 18.5301 61.1767 18.9493 59.8009 18.9843C59.762 18.9843 59.723 18.9843 59.6871 18.9843C58.3653 18.9843 57.3462 18.4078 57.1514 17.2809H53.9114C54.0612 20.4663 57.2803 21.4738 59.5971 21.4738C59.6511 21.4738 59.705 21.4738 59.756 21.4738C62.0848 21.4272 63.1399 20.8915 64.1829 19.8782C64.9112 19.1706 65.2799 18.2738 65.2799 17.214C65.2799 14.6982 63.3167 13.8742 61.0838 13.3588L60.3824 13.2016C58.644 12.8726 57.2173 12.5348 57.3013 11.5594C57.3822 10.5811 58.4732 10.3685 59.3244 10.3452C59.3813 10.3452 59.4353 10.3452 59.4892 10.3452C60.2685 10.3452 60.9219 10.5228 61.3955 11.4488H64.7314C64.4047 8.98836 62.1118 7.90229 59.6511 7.90229" fill="#273A60"/>
<path d="M92.057 8.2373H88.7271L85.8767 18.1517L82.9274 8.2373H79.4536L84.0544 21.1304H87.4952L92.057 8.2373Z" fill="#273A60"/>
<path d="M111.072 7.76854C110.856 7.76854 110.619 7.78018 110.379 7.81804C109.336 7.96653 108.095 9.11666 107.559 10.491V8.23732H104.526V21.1304H107.745V14.975C107.745 13.5745 107.838 12.5175 108.5 11.6877C108.992 11.0733 109.858 10.4619 110.724 10.4619C110.739 10.4619 110.757 10.4619 110.772 10.4619C111.65 10.4852 112.163 10.6599 112.163 10.6599V7.87336C112.163 7.87336 111.692 7.76562 111.069 7.76562" fill="#273A60"/>
<path d="M120.051 7.89647C118.478 7.89647 117.294 8.70592 116.344 10.1676V8.23714H113.311V21.1302H116.509V13.5248C116.509 12.596 116.712 11.737 117.309 11.1576C117.818 10.6568 118.55 10.3714 119.431 10.3714C119.458 10.3714 119.485 10.3714 119.512 10.3714C120.986 10.3976 121.487 11.2216 121.547 13.0677V21.1273H124.745V12.3135C124.745 10.9654 124.343 9.88808 123.549 9.11648C122.725 8.31575 121.556 7.89355 120.048 7.89355" fill="#273A60"/>
<path d="M15.8494 8.25763H12.8761V11.7662C12.8761 12.4592 12.9061 12.4592 10.793 12.4592C8.67999 12.4592 8.65002 12.4592 8.65002 11.7662V8.25763H5.72172V19.9511H8.65002V15.7291C8.65002 15.0594 8.64103 15.0594 10.793 15.0594C12.9451 15.0594 12.8761 15.0594 12.8761 15.7291V19.9511H15.8494V8.25763ZM10.793 21.998C8.27237 21.998 7.43314 21.998 6.1833 21.6632C5.75169 21.5176 4.97841 21.3079 4.41793 20.4461C3.38388 18.7311 3.38388 15.5049 3.38388 13.9529C3.38388 12.401 3.38388 9.65816 4.41793 7.96355C4.97841 7.08421 5.75469 6.87456 6.1833 6.72607C7.43314 6.4116 8.27537 6.4116 10.793 6.4116C13.3107 6.4116 14.09 6.4116 15.3638 6.72607C15.7924 6.87165 16.5477 7.0813 17.0633 7.96355C18.1842 9.65816 18.1842 12.5903 18.1842 14.1422C18.1842 15.6942 18.1842 18.7311 17.0633 20.4461C16.5477 21.305 15.7924 21.5147 15.3638 21.6632C14.09 21.998 13.2508 21.998 10.793 21.998ZM10.7511 0C9.6541 0 8.94375 0.18635 8.64103 0.250408C8.79089 1.61018 8.74893 2.69916 8.64103 3.01654C8.37128 3.78814 7.16939 4.25111 6.21627 4.25111C5.87458 4.25111 5.56587 4.18996 5.34407 4.06476C4.41493 3.52027 4.63073 1.8635 4.63073 0.774517C4.63073 0.774517 3.26998 1.10063 2.43376 1.40345C1.75338 1.65386 0.734323 2.1372 0.734323 2.1372C0.518522 3.52027 0.734323 5.55264 2.13403 6.24272C1.07601 7.27056 0.734323 8.48474 0.28174 10.7268C0.0539502 11.9817 0 13.0008 0 13.8772V13.9617C0 14.4538 0.0179834 14.8993 0.0239779 15.3156C0.131878 16.9054 0.131878 17.7644 0.521519 19.2115C1.079 20.8654 1.4117 21.6428 2.54465 22.7929C4.59476 24.8719 7.81379 24.9942 10.0198 24.9942C10.2925 24.9942 10.5503 24.9942 10.7871 24.9942C11.1138 24.9942 11.4824 25 11.881 25C14.09 25 17.1891 24.8253 19.0714 22.7929C20.1564 21.6253 20.4292 20.8654 20.9687 19.2115C21.4422 17.7644 21.3793 16.9054 21.5291 15.3156C21.5711 14.1422 21.637 12.7358 21.2264 10.7268C20.7738 8.48474 20.4292 7.27056 19.3741 6.24272C20.7738 5.54973 20.9687 3.52027 20.7738 2.1372C20.7738 2.1372 19.7038 1.62183 18.9845 1.36268C18.2052 1.08316 16.9404 0.774517 16.9404 0.774517C16.9404 1.8635 17.0663 3.52027 16.227 4.06476C15.9992 4.18996 15.6845 4.25111 15.3399 4.25111C14.3747 4.25111 13.1639 3.78814 12.9091 3.01654C12.8012 2.70207 12.6933 1.61309 12.9091 0.250408C12.6064 0.18635 11.7671 0 10.7541 0" fill="#273A60"/>
<path d="M131.333 18.9319C131.315 18.9319 131.297 18.9319 131.279 18.9319C130.083 18.9145 129.055 18.4864 128.968 17.5168C128.881 16.5501 129.463 15.8542 130.979 15.598C131.375 15.5223 131.785 15.4845 132.178 15.4291C132.78 15.3418 133.494 15.1816 134.108 14.7798V16.7569C134.108 18.3292 132.523 18.9348 131.33 18.9348M132.016 7.90526H131.974C130.074 7.91399 126.864 8.29251 126.492 11.804H129.708C129.672 10.4122 131.216 10.3074 131.677 10.3074C131.758 10.3074 131.806 10.3103 131.806 10.3103C132.493 10.3103 133.332 10.52 133.788 10.8752C134.066 11.0936 134.252 11.4255 134.273 11.9671C134.309 12.8406 133.877 13.2599 130.862 13.5423C128.533 13.7636 125.764 14.3751 125.764 17.6217C125.764 18.6553 126.127 19.5579 126.816 20.2276C127.649 21.0342 128.908 21.4826 130.356 21.4826C132.274 21.4826 133.38 21.0138 134.369 19.9423L134.525 21.139H137.615V20.6557C137.216 20.3499 137.303 19.0688 137.303 19.0688V11.7225C137.303 10.7558 136.974 9.94637 136.32 9.31161C135.406 8.42354 133.889 7.90234 132.01 7.90234" fill="#273A60"/>
<path d="M165.213 7.83017C164.179 7.98158 162.951 9.12298 162.42 10.4886V8.24946H159.414V21.061H162.603V14.9464C162.603 13.5546 162.696 12.5035 163.352 11.6795C163.85 11.0564 164.728 10.4391 165.6 10.4624C166.472 10.4857 166.979 10.6604 166.979 10.6604V7.89132C166.979 7.89132 166.137 7.69623 165.213 7.83017Z" fill="#273A60"/>
<path d="M191.571 8.21385H188.382V15.7261C188.382 17.8516 187.507 18.929 185.712 18.929C185.013 18.929 184.498 18.6582 184.135 18.3059C183.677 17.8575 183.452 17.1121 183.452 16.026V8.21094H180.284V16.2851C180.284 18.0642 180.7 19.3337 181.558 20.1723C182.376 20.973 183.377 21.3603 185.034 21.3603C186.191 21.3603 187.609 20.5916 188.421 19.5812V21.0196H191.568V8.21385H191.571Z" fill="#273A60"/>
<path d="M170.228 14.5212C170.228 12.5383 170.896 10.3837 173.114 10.3837C175.332 10.3837 176.025 12.5383 176.025 14.5212C176.025 16.5041 175.353 18.6908 173.114 18.6908C170.875 18.6908 170.228 16.4808 170.228 14.5212ZM166.949 14.5212C166.949 18.4375 169.374 21.2444 173.114 21.2444C176.855 21.2444 179.301 18.4346 179.301 14.5212C179.301 10.6079 176.876 7.83008 173.114 7.83008C169.353 7.83008 166.949 10.5817 166.949 14.5212Z" fill="#273A60"/>
<path d="M193.352 24.4502V8.17948L196.376 8.17075V9.7751C197.191 8.6803 198.327 7.83008 200.008 7.83008C203.797 7.83008 206 10.439 206 14.6464C206 16.7894 205.305 18.6966 204.091 19.8817C203.111 20.8367 201.999 21.323 200.479 21.323C198.756 21.323 197.5 20.5514 196.541 19.4042V24.4589L193.352 24.4502ZM199.619 18.7898C200.512 18.7898 201.096 18.5132 201.657 17.9629C202.415 17.2262 202.829 16.0178 202.829 14.5649C202.829 13.1119 202.373 11.9385 201.576 11.164C201.004 10.602 200.443 10.3196 199.616 10.3196C197.758 10.3196 196.78 11.4814 196.493 13.5895C196.454 13.9097 196.436 15.0744 196.454 15.2899C196.661 17.5465 197.653 18.7898 199.616 18.7898" fill="#273A60"/>
<path d="M155.359 21.1275H157.607V12.1565H151.219V14.8149H154.414C154.211 17.1385 152.886 18.4284 150.593 18.4284C147.425 18.4284 146.232 15.6127 146.232 12.8204C146.232 9.88831 147.425 7.07268 150.593 7.07268C152.256 7.07268 153.524 7.74528 153.929 9.60005H157.301C156.917 5.80026 153.875 3.97461 150.596 3.97461C145.627 3.97461 142.707 7.84428 142.707 12.8204C142.707 17.7965 145.63 21.5235 150.596 21.5235C152.146 21.5235 153.764 20.8917 155.002 19.2233L155.362 21.1246L155.359 21.1275Z" fill="#273A60"/>
</g>
<defs>
<clipPath id="clip0_412_9114">
<rect width="206" height="25" fill="white"/>
</clipPath>
</defs>
</svg>
