<svg width="41" height="50" viewBox="0 0 41 50" fill="none" xmlns="http://www.w3.org/2000/svg">
<path d="M39.5639 45.4417L40.0129 10.5445L29.0983 0.778026L5.48072 0.476939C3.06497 0.445612 1.08495 2.37232 1.05528 4.78189L0.536593 44.9326C0.506922 47.3422 2.43363 49.3222 4.84938 49.3535L35.1402 49.7405C37.5497 49.7702 39.5297 47.8435 39.5611 45.4277L39.5639 45.4417Z" fill="#F4F4F3"/>
<path d="M29.0346 6.03248C29.0049 8.44205 30.9317 10.4221 33.3474 10.4534L40.0206 10.5393L29.0982 0.777344L29.0284 6.03082L29.0346 6.03248Z" fill="white"/>
<path d="M29.0346 6.03248C29.0049 8.44205 30.9317 10.4221 33.3474 10.4534L40.0206 10.5393L29.0982 0.777344L29.0284 6.03082L29.0346 6.03248Z" fill="#273A60" fill-opacity="0.3"/>
<path d="M23.0198 24.7485L26.8032 21.0597C27.7011 20.181 27.7221 18.7427 26.845 17.8387C25.9662 16.9409 24.528 16.9199 23.624 17.797L19.8406 21.4858L16.1518 17.7023C15.273 16.8045 13.8348 16.7834 12.9308 17.6605C12.033 18.5393 12.0119 19.9776 12.889 20.8815L16.5778 24.665L12.7944 28.3538C11.8966 29.2326 11.8755 30.6708 12.7526 31.5748C13.6314 32.4726 15.0696 32.4937 15.9736 31.6165L19.757 27.9278L23.4458 31.7112C24.3246 32.609 25.7628 32.6301 26.6668 31.753C27.5646 30.8742 27.5857 29.436 26.7086 28.532L23.0198 24.7485Z" fill="white"/>
<path d="M23.0198 24.7485L26.8032 21.0597C27.7011 20.181 27.7221 18.7427 26.845 17.8387C25.9662 16.9409 24.528 16.9199 23.624 17.797L19.8406 21.4858L16.1518 17.7023C15.273 16.8045 13.8348 16.7834 12.9308 17.6605C12.033 18.5393 12.0119 19.9776 12.889 20.8815L16.5778 24.665L12.7944 28.3538C11.8966 29.2326 11.8755 30.6708 12.7526 31.5748C13.6314 32.4726 15.0696 32.4937 15.9736 31.6165L19.757 27.9278L23.4458 31.7112C24.3246 32.609 25.7628 32.6301 26.6668 31.753C27.5646 30.8742 27.5857 29.436 26.7086 28.532L23.0198 24.7485Z" fill="#273A60" fill-opacity="0.3"/>
</svg>
