<svg width="66" height="77" viewBox="0 0 66 77" fill="none" xmlns="http://www.w3.org/2000/svg">
<path d="M61.8091 70.282L62.5108 15.7349L45.4506 0.469256L8.53447 -0.00136437C4.75848 -0.0503311 1.66356 2.96126 1.61719 6.72759L0.806437 69.4862C0.760058 73.2525 3.77165 76.3474 7.54764 76.3964L54.8944 77.0013C58.6607 77.0476 61.7556 74.0361 61.8046 70.2601L61.8091 70.282Z" fill="#F4F4F3"/>
<path d="M45.3511 8.68292C45.3047 12.4493 48.3163 15.5442 52.0923 15.5931L62.5229 15.7274L45.4504 0.46875L45.3414 8.68033L45.3511 8.68292Z" fill="white"/>
<path d="M45.3511 8.68292C45.3047 12.4493 48.3163 15.5442 52.0923 15.5931L62.5229 15.7274L45.4504 0.46875L45.3414 8.68033L45.3511 8.68292Z" fill="#273A60" fill-opacity="0.3"/>
<path d="M35.9495 37.9377L41.8634 32.1718C43.2667 30.7982 43.2997 28.5502 41.9287 27.1372C40.5551 25.7339 38.307 25.7009 36.894 27.0719L30.9802 32.8378L25.2143 26.9239C23.8407 25.5206 21.5927 25.4876 20.1797 26.8586C18.7763 28.2322 18.7434 30.4803 20.1144 31.8933L25.8802 37.8071L19.9664 43.573C18.5631 44.9466 18.5301 47.1946 19.9011 48.6076C21.2747 50.011 23.5228 50.0439 24.9358 48.6729L30.8496 42.9071L36.6155 48.8209C37.9891 50.2242 40.2371 50.2572 41.6501 48.8862C43.0534 47.5126 43.0864 45.2645 41.7154 43.8515L35.9495 37.9377Z" fill="white"/>
<path d="M35.9495 37.9377L41.8634 32.1718C43.2667 30.7982 43.2997 28.5502 41.9287 27.1372C40.5551 25.7339 38.307 25.7009 36.894 27.0719L30.9802 32.8378L25.2143 26.9239C23.8407 25.5206 21.5927 25.4876 20.1797 26.8586C18.7763 28.2322 18.7434 30.4803 20.1144 31.8933L25.8802 37.8071L19.9664 43.573C18.5631 44.9466 18.5301 47.1946 19.9011 48.6076C21.2747 50.011 23.5228 50.0439 24.9358 48.6729L30.8496 42.9071L36.6155 48.8209C37.9891 50.2242 40.2371 50.2572 41.6501 48.8862C43.0534 47.5126 43.0864 45.2645 41.7154 43.8515L35.9495 37.9377Z" fill="#273A60" fill-opacity="0.3"/>
</svg>
