<svg width="13" height="14" viewBox="0 0 13 14" fill="none" xmlns="http://www.w3.org/2000/svg">
<path d="M7.33293 1.33293C7.33293 0.932542 6.99414 0.59375 6.59375 0.59375C6.16256 0.59375 5.85457 0.932542 5.85457 1.33293V6.26082H0.926683C0.495493 6.26082 0.1875 6.59961 0.1875 7C0.1875 7.43119 0.495493 7.73918 0.926683 7.73918H5.85457V12.6671C5.85457 13.0983 6.16256 13.4062 6.59375 13.4062C6.99414 13.4062 7.33293 13.0983 7.33293 12.6671V7.73918H12.2608C12.6612 7.73918 13 7.43119 13 7C13 6.59961 12.6612 6.26082 12.2608 6.26082H7.33293V1.33293Z" fill="#193154"/>
</svg>
