<svg width="9" height="9" viewBox="0 0 9 9" fill="none" xmlns="http://www.w3.org/2000/svg">
<path d="M8.33138 1.51795C8.55621 1.29313 8.55621 0.918423 8.33138 0.693599C8.08158 0.443794 7.70687 0.443794 7.48205 0.693599L4.50937 3.66628L1.53669 0.668618C1.28689 0.443794 0.912178 0.443794 0.687354 0.668618C0.437549 0.918423 0.437549 1.29313 0.687354 1.51795L3.66003 4.49063L0.687354 7.46331C0.437549 7.71311 0.437549 8.08782 0.687354 8.31265C0.912178 8.56245 1.28689 8.56245 1.51171 8.31265L4.48439 5.33997L7.48205 8.31265C7.70687 8.56245 8.08158 8.56245 8.3064 8.31265C8.55621 8.08782 8.55621 7.71311 8.3064 7.48829L5.33372 4.51561L8.33138 1.51795Z" fill="#273A60"/>
</svg>
