<svg width="16" height="16" viewBox="0 0 16 16" fill="none" xmlns="http://www.w3.org/2000/svg">
<path d="M14.7241 6.96569C15.1444 6.96569 15.5 6.64241 15.5 6.18982V1.53465C15.5 1.11439 15.1444 0.758789 14.7241 0.758789C14.2716 0.758789 13.9483 1.11439 13.9483 1.53465V4.15319L13.3017 3.37732C11.9763 1.79327 9.97198 0.758789 7.74138 0.758789C3.73276 0.758789 0.5 4.02388 0.5 8.00017C0.5 12.0088 3.73276 15.2415 7.74138 15.2415C9.35776 15.2415 10.8772 14.7243 12.0733 13.8191C12.4289 13.5605 12.4935 13.0756 12.2349 12.72C11.9763 12.3644 11.4914 12.2997 11.1358 12.5584C10.1983 13.2696 9.00215 13.6898 7.74138 13.6898C4.57328 13.6898 2.05172 11.1683 2.05172 8.00017C2.05172 4.86439 4.57328 2.31051 7.74138 2.31051C9.48707 2.31051 11.0388 3.1187 12.1056 4.37948L12.9784 5.41396H10.069C9.61638 5.41396 9.2931 5.76956 9.2931 6.18982C9.2931 6.64241 9.61638 6.96569 10.069 6.96569H14.7241Z" fill="#193154"/>
</svg>
