<svg width="16" height="16" viewBox="0 0 16 16" fill="none" xmlns="http://www.w3.org/2000/svg">
<path d="M11.5039 6.49219C11.5039 4.71094 10.5352 3.08594 9.00391 2.17969C7.44141 1.27344 5.53516 1.27344 4.00391 2.17969C2.44141 3.08594 1.50391 4.71094 1.50391 6.49219C1.50391 8.30469 2.44141 9.92969 4.00391 10.8359C5.53516 11.7422 7.44141 11.7422 9.00391 10.8359C10.5352 9.92969 11.5039 8.30469 11.5039 6.49219ZM10.5352 11.6172C9.41016 12.4922 8.00391 12.9922 6.50391 12.9922C2.91016 12.9922 0.00390625 10.0859 0.00390625 6.49219C0.00390625 2.92969 2.91016 -0.0078125 6.50391 -0.0078125C10.0664 -0.0078125 13.0039 2.92969 13.0039 6.49219C13.0039 8.02344 12.4727 9.42969 11.5977 10.5547L15.7852 14.7109C16.0664 15.0234 16.0664 15.4922 15.7852 15.7734C15.4727 16.0859 15.0039 16.0859 14.7227 15.7734L10.5352 11.6172Z" fill="#273A60"/>
</svg>
