<svg width="40" height="40" viewBox="0 0 40 40" fill="none" xmlns="http://www.w3.org/2000/svg">
<path d="M21.5 26.4922C21.5 27.3672 20.8125 27.9922 20 27.9922C19.125 27.9922 18.5 27.3672 18.5 26.4922V9.11719L12.5625 15.0547C11.9375 15.6797 11 15.6797 10.4375 15.0547C9.8125 14.4922 9.8125 13.5547 10.4375 12.9297L18.9375 4.42969C19.5 3.86719 20.4375 3.86719 21 4.42969L29.5625 12.9297C30.125 13.5547 30.125 14.4922 29.5625 15.0547C28.9375 15.6797 28 15.6797 27.4375 15.0547L21.5 9.11719V26.4922ZM23.5 25.9922V22.9922H32C34.1875 22.9922 36 24.8047 36 26.9922V31.9922C36 34.2422 34.1875 35.9922 32 35.9922H8C5.75 35.9922 4 34.2422 4 31.9922V26.9922C4 24.8047 5.75 22.9922 8 22.9922H16.5V25.9922H8C7.4375 25.9922 7 26.4922 7 26.9922V31.9922C7 32.5547 7.4375 32.9922 8 32.9922H32C32.5 32.9922 33 32.5547 33 31.9922V26.9922C33 26.4922 32.5 25.9922 32 25.9922H23.5ZM28 29.4922C28 28.6797 28.625 27.9922 29.5 27.9922C30.3125 27.9922 31 28.6797 31 29.4922C31 30.3672 30.3125 30.9922 29.5 30.9922C28.625 30.9922 28 30.3672 28 29.4922Z" fill="#D2D2D1"/>
</svg>
